<svg xmlns="http://www.w3.org/2000/svg" width="43" height="37.998" viewBox="0 0 43 37.998">
  <g id="ANSI-b_white" transform="translate(0.003 -0.003)">
    <path id="합치기_3" data-name="합치기 3" d="M41.321,38H1.414A1.571,1.571,0,0,1,.177,35.706h0L20.312.85A1.542,1.542,0,0,1,22.978.7h0V.707a1.5,1.5,0,0,1,.1.171L42.793,35.656h0A1.571,1.571,0,0,1,41.445,38Z" transform="translate(0 0.001)" fill="#f89d21"/>
    <path id="합치기_4" data-name="합치기 4" d="M1.234,22.853A2.209,2.209,0,0,1,3.5,20.7a2.151,2.151,0,1,1,0,4.3A2.208,2.208,0,0,1,1.234,22.853Zm.42-5.727L0,3.683H.022A3.171,3.171,0,0,1,0,3.321,3.414,3.414,0,0,1,3.5,0,3.413,3.413,0,0,1,7,3.321a3.171,3.171,0,0,1-.021.362H7L5.351,17.1A1.815,1.815,0,0,1,3.5,18.75,1.815,1.815,0,0,1,1.654,17.126Z" transform="translate(17.997 9.001)"/>
  </g>
</svg>
