<svg id="_05" data-name="05" xmlns="http://www.w3.org/2000/svg" width="27" height="27" viewBox="0 0 27 27">
  <path id="패스_5079" data-name="패스 5079" d="M1044.7,99.919a2.3,2.3,0,1,0,2.3,2.3A2.3,2.3,0,0,0,1044.7,99.919Zm0,3.233a.935.935,0,1,1,.935-.935.935.935,0,0,1-.935.935Z" transform="translate(-1022.493 -91.138)" fill="#05141f"/>
  <path id="패스_5078" data-name="패스 5078" d="M869.332,19.082l-.873-5.183a1.366,1.366,0,0,0-1.351-1.142H856.54a1.366,1.366,0,0,0-1.351,1.142l-.873,5.183a2.431,2.431,0,0,0-2.383,2.427v.077a9.192,9.192,0,0,0,1.967,18.17h.007a9.2,9.2,0,0,0,8.978-11.166h3.86v.861a1.372,1.372,0,0,0,1.37,1.37h2.23a1.372,1.372,0,0,0,1.37-1.37V21.509A2.431,2.431,0,0,0,869.332,19.082Zm-12.655-4.794h10.295l.807,4.792H855.87Zm3.195,21.074a9.934,9.934,0,0,1-1.074,1.092,7.623,7.623,0,0,1-4.89,1.77H853.9A7.66,7.66,0,1,1,853.91,22.9h0a7.653,7.653,0,0,1,5.961,12.457Zm10.312-6.073h-1.906V27.058h-5.872a9.194,9.194,0,0,0-8.491-5.685h-.007c-.145,0-.289,0-.432.01a.9.9,0,0,1,.886-.77h14.926a.9.9,0,0,1,.9.9Z" transform="translate(-844.715 -12.756)" fill="#05141f"/>
  <rect id="사각형_3396" data-name="사각형 3396" width="1.986" height="7.063" transform="translate(8.45 16.538)" fill="#05141f"/>
  <rect id="사각형_3397" data-name="사각형 3397" width="1.986" height="1.862" transform="translate(8.45 12.842)" fill="#05141f"/>
</svg>
