<svg id="_06" data-name="06" xmlns="http://www.w3.org/2000/svg" width="25.986" height="27" viewBox="0 0 25.986 27">
  <path id="패스_1221" data-name="패스 1221" d="M91.531,24.529a5.887,5.887,0,1,0-5.888-5.887A5.887,5.887,0,0,0,91.531,24.529Zm0-10.13a4.244,4.244,0,1,1-4.245,4.244A4.244,4.244,0,0,1,91.531,14.4Z" transform="translate(-79.057 -12.756)" fill="#05141f"/>
  <path id="패스_1222" data-name="패스 1222" d="M23.933,64.882a.967.967,0,0,1,.968-.965h1.288a.967.967,0,0,1,.968.965v1.64h1.609v-1.64a2.549,2.549,0,0,0-.442-1.438,7.053,7.053,0,0,1,12.934,0,2.549,2.549,0,0,0-.442,1.438v1.64h1.609v-1.64a.967.967,0,0,1,.968-.965h1.288a.967.967,0,0,1,.968.965v1.64h1.609v-1.64a2.564,2.564,0,0,0-1.042-2.062V57.913a5.774,5.774,0,0,0-2.171-4.51l4.269-5.033-1.228-1.036L37.89,58.172l0,0a8.594,8.594,0,0,0-1.485-.422v0L48.309,43.806l-1.225-1.04L39.1,52.123H29.173a5.805,5.805,0,0,0-5.807,5.79V62.82a2.564,2.564,0,0,0-1.042,2.062v1.64h1.609ZM43,54.628a4.173,4.173,0,0,1,1.6,3.285v4.4H43.391a2.571,2.571,0,0,0-.824.136,8.7,8.7,0,0,0-3.2-3.536Zm-13.829-.9h8.553L34.411,57.61a8.669,8.669,0,0,0-7.4,4.839,2.57,2.57,0,0,0-.824-.136H24.975v-4.4A4.2,4.2,0,0,1,29.173,53.727Z" transform="translate(-22.325 -39.522)" fill="#05141f"/>
</svg>
