<svg xmlns="http://www.w3.org/2000/svg" width="27" height="27" viewBox="0 0 27 27">
  <path id="_01" data-name="01" d="M2970.811,33.6h2.169a1.393,1.393,0,0,0,1.392-1.391V31.43h3.921v6.028a2.3,2.3,0,0,0,2.3,2.3h11.074a2.3,2.3,0,0,0,2.3-2.3V21.9h1.045a1.406,1.406,0,0,0,1.406-1.4V15.924h-1.132V12.756h-1.5v3.168h-1.238V12.756h-1.5v3.168h-1.132V20.5a1.406,1.406,0,0,0,1.406,1.4h1.045V37.459a.69.69,0,0,1-.69.689h-11.074a.69.69,0,0,1-.69-.689V31.43h3.921v.776a1.393,1.393,0,0,0,1.392,1.391h2.169a1.393,1.393,0,0,0,1.392-1.391V24.491a2.423,2.423,0,0,0-2.326-2.417l-.841-4.987a1.389,1.389,0,0,0-1.373-1.16h-10.279a1.388,1.388,0,0,0-1.373,1.16l-.841,4.987a2.423,2.423,0,0,0-2.327,2.417v7.715A1.393,1.393,0,0,0,2970.811,33.6Zm20.706-13.3V17.533h3.291v2.761Zm-17.373-2.758h9.91l.765,4.535h-11.44Zm-3.115,6.955a.812.812,0,0,1,.812-.811h14.516a.812.812,0,0,1,.812.811v7.5h-1.733V29.821h-12.673v2.167h-1.733Z" transform="translate(-2969.418 -12.756)" fill="#05141f"/>
</svg>
