<svg id="icon_home" xmlns="http://www.w3.org/2000/svg" width="24" height="24" viewBox="0 0 24 24">
  <path id="패스_189" data-name="패스 189" d="M0,0H24V24H0Z" fill="none"/>
  <path id="패스_5592" data-name="패스 5592" d="M9.262,16.675V12.417h3.59v4.257a.878.878,0,0,0,.9.851h2.692a.878.878,0,0,0,.9-.851v-5.96h1.526a.42.42,0,0,0,.3-.741l-7.5-6.412a.941.941,0,0,0-1.2,0l-7.5,6.412a.421.421,0,0,0,.3.741H4.775v5.96a.878.878,0,0,0,.9.851H8.365A.878.878,0,0,0,9.262,16.675Z" transform="translate(0.943 1.126)" fill="#37434b"/>
</svg>
