<svg xmlns="http://www.w3.org/2000/svg" width="21.999" height="22" viewBox="0 0 21.999 22">
  <g id="icon_plus2" transform="translate(-373.801 -13.999)">
    <path id="icon_plus" d="M-12318-349a10.928,10.928,0,0,1-7.777-3.221A10.931,10.931,0,0,1-12329-360a11.012,11.012,0,0,1,11-11,10.927,10.927,0,0,1,7.779,3.222A10.927,10.927,0,0,1-12307-360a10.927,10.927,0,0,1-3.221,7.779A10.929,10.929,0,0,1-12318-349Zm-5-12h0v2h4v4h2v-4h4v-2h-4v-4h-2v4Z" transform="translate(12702.801 385)" fill="#fff"/>
  </g>
</svg>
