<svg xmlns="http://www.w3.org/2000/svg" width="80" height="19.052" viewBox="0 0 80 19.052">
  <path id="CI" d="M71.57,18.759V6.39c0-.135-.045-.238-.136-.238a.375.375,0,0,0-.192.073L53.015,18.217a2.373,2.373,0,0,1-1.4.436H39.531a1.336,1.336,0,0,1-1.405-1.423V1.958c0-.112-.049-.214-.133-.214a.381.381,0,0,0-.2.074L25.775,9.131c-.12.074-.153.134-.153.193s.02.1.106.187l8.586,8.7c.115.116.193.2.193.295s-.126.15-.272.15H26.464a1.863,1.863,0,0,1-1.406-.427l-5.207-5.273a.218.218,0,0,0-.15-.084.336.336,0,0,0-.161.057l-8.711,5.3a2.424,2.424,0,0,1-1.407.426H1.405A1.336,1.336,0,0,1,0,17.23V6.827a2.665,2.665,0,0,1,1.406-2.7L8.093.059A.34.34,0,0,1,8.274,0c.1,0,.157.108.157.342V14.25c0,.146.04.214.133.214a.416.416,0,0,0,.2-.084L31.361.626A2.427,2.427,0,0,1,32.852.2h12.16a1.336,1.336,0,0,1,1.405,1.423V16.88c0,.149.045.235.134.235a.362.362,0,0,0,.194-.075L71.678.642A2.379,2.379,0,0,1,73.115.2h5.48A1.336,1.336,0,0,1,80,1.623v10.6a2.672,2.672,0,0,1-1.4,2.7l-6.647,4.045a.438.438,0,0,1-.223.083C71.645,19.052,71.57,18.99,71.57,18.759Z" fill="#05141f"/>
</svg>
