<svg xmlns="http://www.w3.org/2000/svg" width="19.145" height="27.512" viewBox="0 0 19.145 27.512">
  <g id="_09" data-name="09" transform="translate(0 0)">
    <path id="패스_840" data-name="패스 840" d="M1789.149,444.932a4.906,4.906,0,1,0-4.907-4.906A4.906,4.906,0,0,0,1789.149,444.932Zm0-8.174a3.267,3.267,0,1,1-3.268,3.268,3.267,3.267,0,0,1,3.268-3.268Z" transform="translate(-1779.578 -435.119)" fill="#05141f"/>
    <path id="패스_841" data-name="패스 841" d="M1740.99,549.414v10.776h1.639V549.414a3.307,3.307,0,0,1,3.3-3.3h9.259a3.307,3.307,0,0,1,3.3,3.3V560.19h1.639V549.414a4.948,4.948,0,0,0-4.943-4.943h-9.259a4.949,4.949,0,0,0-4.943,4.943Z" transform="translate(-1740.99 -532.678)" fill="#05141f"/>
    <rect id="사각형_2293" data-name="사각형 2293" width="1.639" height="5.83" transform="translate(8.745 21.682)" fill="#05141f"/>
    <rect id="사각형_2294" data-name="사각형 2294" width="1.639" height="1.537" transform="translate(8.745 18.609)" fill="#05141f"/>
  </g>
</svg>
