<svg xmlns="http://www.w3.org/2000/svg" width="27" height="27" viewBox="0 0 27 27">
  <g id="_07_over" data-name="07_over" transform="translate(0 0)">
    <path id="_07emergency_" data-name="07emergency_" d="M18.4,31.9a1.788,1.788,0,0,1-.742-.159,2.645,2.645,0,0,1-.671-.442L5.5,19.814a2.645,2.645,0,0,1-.442-.671A1.788,1.788,0,0,1,4.9,18.4a1.911,1.911,0,0,1,.159-.76,2.068,2.068,0,0,1,.442-.654L16.986,5.5a2.013,2.013,0,0,1,.671-.459A1.98,1.98,0,0,1,18.4,4.9a2.118,2.118,0,0,1,.76.141,1.658,1.658,0,0,1,.654.459L31.3,16.986a1.658,1.658,0,0,1,.459.654,2.118,2.118,0,0,1,.141.76,1.98,1.98,0,0,1-.141.742,2.013,2.013,0,0,1-.459.671L19.814,31.3a2.068,2.068,0,0,1-.654.442A1.911,1.911,0,0,1,18.4,31.9Zm.318-1.767L30.133,18.718a.429.429,0,0,0,0-.636L18.718,6.667a.429.429,0,0,0-.636,0L6.667,18.082a.429.429,0,0,0,0,.636L18.082,30.133a.429.429,0,0,0,.636,0ZM17.587,19.92h1.626V12H17.587Zm.813,3.463a.906.906,0,1,0-.618-.265A.848.848,0,0,0,18.4,23.383ZM18.4,18.4Z" transform="translate(-4.9 -4.9)" fill="#fff"/>
  </g>
</svg>
