<svg id="_03" data-name="03" xmlns="http://www.w3.org/2000/svg" width="27" height="27" viewBox="0 0 27 27">
  <path id="패스_2382" data-name="패스 2382" d="M869.332,19.081l-.873-5.183a1.366,1.366,0,0,0-1.351-1.142H856.54a1.366,1.366,0,0,0-1.351,1.142l-.873,5.183a2.431,2.431,0,0,0-2.383,2.427v.077a9.192,9.192,0,0,0,1.967,18.17h.007a9.2,9.2,0,0,0,8.978-11.166h3.86v.861a1.372,1.372,0,0,0,1.37,1.37h2.23a1.372,1.372,0,0,0,1.37-1.37V21.509A2.431,2.431,0,0,0,869.332,19.081Zm-12.655-4.794h10.295l.807,4.792H855.869Zm3.195,21.073L856.808,32.3a4.357,4.357,0,1,0-1.083,1.084l3.072,3.072a7.624,7.624,0,0,1-4.89,1.77H853.9A7.66,7.66,0,1,1,853.91,22.9h0a7.653,7.653,0,0,1,5.961,12.457Zm-6.64-2.728a2.829,2.829,0,1,1,2-.829A2.829,2.829,0,0,1,853.231,32.634Zm16.952-3.345h-1.906V27.057h-5.872a9.194,9.194,0,0,0-8.491-5.685h-.007c-.145,0-.289,0-.432.01a.9.9,0,0,1,.887-.77h14.925a.9.9,0,0,1,.9.9Z" transform="translate(-844.715 -12.756)" fill="#05141f"/>
  <path id="패스_5080" data-name="패스 5080" d="M1044.7,99.919a2.3,2.3,0,1,0,2.3,2.3A2.3,2.3,0,0,0,1044.7,99.919Zm0,3.233a.935.935,0,1,1,.935-.935.935.935,0,0,1-.935.935Z" transform="translate(-1023.332 -91.017)" fill="#05141f"/>
</svg>
