<svg id="_11" data-name="11" xmlns="http://www.w3.org/2000/svg" width="27.001" height="27" viewBox="0 0 27.001 27">
  <rect id="사각형_2321" data-name="사각형 2321" width="11.452" height="1.624" transform="translate(11.319 4.898)" fill="#05141f"/>
  <path id="패스_883" data-name="패스 883" d="M3810.382,884.5a9.137,9.137,0,0,0,7.761-4.307h10.095V857.5h-19.855v8.931a9.145,9.145,0,0,0,2,18.069ZM3810,859.11h16.629v19.467h-3.912v1.613h-4.57l.8-1.613a9.121,9.121,0,0,0,.585-3.225c0-.021,0-.042,0-.062h4.46v-1.613h-3.646a12.32,12.32,0,0,1,.157,1.613c.375,0-.971,0-.971,0a4.213,4.213,0,0,0,0-.608,5.126,5.126,0,0,0-.154-1,11.493,11.493,0,0,0-.777-2.415l.3-1.345a17.594,17.594,0,0,1,.844,1.613c1.314.013,4.25,0,4.25,0v-1.613h-5.093l-.3,1.345a8.856,8.856,0,0,0-.86-1.345,9.2,9.2,0,0,0-2.241-2.147h8.491v-1.613h-9.265s.793.436,1.391.839a9.316,9.316,0,0,1,1,.774H3815.5a5.373,5.373,0,0,0-1.165-.7,14.179,14.179,0,0,0-1.719-.592,9.163,9.163,0,0,0-2.23-.274c-.129,0-.258,0-.386.009Zm.386,8.63a7.612,7.612,0,1,1-7.612,7.612A7.612,7.612,0,0,1,3810.382,867.74Z" transform="translate(-3801.237 -857.497)" fill="#05141f"/>
  <path id="패스_884" data-name="패스 884" d="M3850.7,998.687h1.594v-3.793h3.854V993.3H3852.3v-3.792H3850.7V993.3h-3.853v1.593h3.853Z" transform="translate(-3842.34 -976.248)" fill="#05141f"/>
</svg>
