<svg width="16" height="16" viewBox="0 0 16 16" fill="none" xmlns="http://www.w3.org/2000/svg">
<path d="M2 14V14.5H1.5V14H2ZM2 5.66667H1.5V5.38625L1.73927 5.24003L2 5.66667ZM14 5.66667L14.2607 5.24003L14.5 5.38625V5.66667H14ZM14 14H14.5V14.5H14V14ZM8 2L7.73927 1.57336L8 1.41403L8.26073 1.57336L8 2ZM8 14H8.5V14.5H8V14ZM7.5 10V9.5H8.5V10H7.5ZM1.5 14V5.66667H2.5V14H1.5ZM14.5 5.66667V14H13.5V5.66667H14.5ZM1.73927 5.24003L7.73927 1.57336L8.26073 2.42664L2.26073 6.09331L1.73927 5.24003ZM8.26073 1.57336L14.2607 5.24003L13.7393 6.09331L7.73927 2.42664L8.26073 1.57336ZM8 14.5H2V13.5H8V14.5ZM7.5 14V10H8.5V14H7.5ZM14 14.5H10V13.5H14V14.5Z" fill="#77B239"/>
</svg>
