<svg width="24" height="24" viewBox="0 0 24 24" fill="none" xmlns="http://www.w3.org/2000/svg">
<path d="M3 21V22H2V21H3ZM3 8.5H2V7.93917L2.47855 7.64672L3 8.5ZM21 8.5L21.5214 7.64672L22 7.93917V8.5H21ZM21 21H22V22H21V21ZM12 3L11.4785 2.14672L12 1.82805L12.5215 2.14672L12 3ZM12 21H13V22H12V21ZM11 15V14H13V15H11ZM2 21V8.5H4V21H2ZM22 8.5V21H20V8.5H22ZM2.47855 7.64672L11.4785 2.14672L12.5215 3.85328L3.52145 9.35328L2.47855 7.64672ZM12.5215 2.14672L21.5214 7.64672L20.4786 9.35328L11.4785 3.85328L12.5215 2.14672ZM12 22H3V20H12V22ZM11 21V15H13V21H11ZM21 22H15V20H21V22Z" fill="#05141F"/>
</svg>

