<svg id="_08_over" data-name="08_over" xmlns="http://www.w3.org/2000/svg" width="27.61" height="31.652" viewBox="0 0 27.61 31.652">
  <path id="패스_2375" data-name="패스 2375" d="M78.347,176.756a2.666,2.666,0,1,0,2.666,2.666A2.666,2.666,0,0,0,78.347,176.756Zm0,3.737a1.071,1.071,0,1,1,1.071-1.071,1.071,1.071,0,0,1-1.071,1.071Z" transform="translate(-69.514 -155.871)" fill="#fff"/>
  <path id="패스_2376" data-name="패스 2376" d="M178.515,176.756a2.666,2.666,0,1,0,2.666,2.666A2.666,2.666,0,0,0,178.515,176.756Zm0,3.737a1.071,1.071,0,1,1,1.071-1.071,1.071,1.071,0,0,1-1.071,1.071Z" transform="translate(-157.846 -155.871)" fill="#fff"/>
  <g id="그룹_2964" data-name="그룹 2964">
    <path id="패스_2374" data-name="패스 2374" d="M71.462,97.966l-1.01-5.994a1.593,1.593,0,0,0-1.575-1.332H56.639a1.593,1.593,0,0,0-1.575,1.332l-1.01,5.994a2.826,2.826,0,0,0-2.761,2.822v9.2a1.6,1.6,0,0,0,1.6,1.6h2.583a1.6,1.6,0,0,0,1.6-1.6V109H68.446v.986a1.6,1.6,0,0,0,1.6,1.6h2.583a1.6,1.6,0,0,0,1.6-1.6v-9.2A2.826,2.826,0,0,0,71.462,97.966Zm-14.656-5.53h11.9l.931,5.528H55.875Zm15.621,17.35H70.242V107.2h-1.8V109H64.985v-1.8H55.274v2.583H53.089v-9a1.028,1.028,0,0,1,1.027-1.027H71.4a1.028,1.028,0,0,1,1.027,1.027Z" transform="translate(-48.007 -79.931)" fill="#fff"/>
    <path id="패스_2377" data-name="패스 2377" d="M28.152,0a4.959,4.959,0,0,0-4.617,3.193.8.8,0,0,0,.751,1.085h3.284V5.589H24.285a.8.8,0,0,0-.751,1.085,4.934,4.934,0,0,0,8.908.694H51.093V2.5H32.442A4.935,4.935,0,0,0,28.152,0ZM49.557,5.832V7.368h-3.11V5.832H31.466l-.2.46a3.4,3.4,0,0,1-5.707.833h2.109A1.44,1.44,0,0,0,29.1,5.687V4.18a1.44,1.44,0,0,0-1.438-1.438H25.558a3.4,3.4,0,0,1,5.707.833l.2.46h18.09Z" transform="translate(-23.483 0)" fill="#fff"/>
  </g>
</svg>
