<svg id="_12_over" data-name="12_over" xmlns="http://www.w3.org/2000/svg" width="26" height="27" viewBox="0 0 26 27">
  <path id="패스_1015" data-name="패스 1015" d="M2549.97,452.773l2.921,5.146,3.046-.689,3.159,1.858.936,3.017,5.855.011.935-3.021,3.171-1.857,3.052.69,2.924-5.142-2.114-2.331,0-3.7,2.114-2.332-2.937-5.136-3.051.691-3.15-1.841-.936-3.017h-5.859l-.935,3.021-3.14,1.839-3.05-.689-2.932,5.141,2.11,2.328-.006,3.685Zm1.966-8.562,1.766-3.1,2.517.569,4.211-2.466.771-2.491h3.529l.772,2.489,4.222,2.467,2.518-.571,1.768,3.092-1.743,1.923.005,4.958,1.743,1.923-1.76,3.095-2.517-.569-4.242,2.484-.771,2.489-3.525-.007-.771-2.489-4.229-2.487-2.513.568-1.759-3.1,1.742-1.923.008-4.938Z" transform="translate(-2549.97 -435.116)" fill="#fff"/>
  <path id="패스_1016" data-name="패스 1016" d="M2610.925,506.666a7.4,7.4,0,1,0-7.225-7.4A7.312,7.312,0,0,0,2610.925,506.666Zm0-13.2a5.81,5.81,0,1,1-5.674,5.808,5.742,5.742,0,0,1,5.674-5.808Z" transform="translate(-2597.923 -485.77)" fill="#fff"/>
</svg>
