<svg id="_04_over" data-name="04_over" xmlns="http://www.w3.org/2000/svg" width="24.002" height="27" viewBox="0 0 24.002 27">
  <path id="health_and_safety_FILL0_wght300_GRAD0_opsz48" d="M21,32.05a15.489,15.489,0,0,1-8.6-5.539A14.741,14.741,0,0,1,9,17.09V9.039L21,5.05,33,9.039v5.483c0,.1.005,2.762,0,3.1a14.194,14.194,0,0,1-3.4,8.885A15.489,15.489,0,0,1,21,32.05Zm0-1.71a13.876,13.876,0,0,0,7.34-4.987,13.433,13.433,0,0,0,2.85-7.728c0,.033,1.81,0,1.81,0v-3.1H31.2V10.179L21,6.76l-10.2,3.42v6.91a13.193,13.193,0,0,0,2.86,8.264A13.876,13.876,0,0,0,21,30.34Z" transform="translate(-9 -5.05)" fill="#fff"/>
  <path id="패스_1249" data-name="패스 1249" d="M13.489,457.372h1.022a.733.733,0,0,0,.733-.733v-.65H22.3v.65a.734.734,0,0,0,.733.733h1.022a.734.734,0,0,0,.733-.733v-4.922a1.39,1.39,0,0,0-1.389-1.389h-.07l-.557-3.309a.731.731,0,0,0-.723-.611H15.495a.731.731,0,0,0-.723.611l-.557,3.309h-.07a1.39,1.39,0,0,0-1.389,1.389v4.922A.733.733,0,0,0,13.489,457.372Zm1.038-.733a.016.016,0,0,1-.016.016H13.489a.016.016,0,0,1-.016-.016v-.65h1.054Zm9.541,0a.016.016,0,0,1-.016.016H23.03a.016.016,0,0,1-.016-.016v-.65h1.054Zm-8.589-9.5a.016.016,0,0,1,.016-.013h6.551a.016.016,0,0,1,.016.013l.537,3.19H14.942Zm-2.007,4.579a.673.673,0,0,1,.672-.672H23.4a.673.673,0,0,1,.672.672v3.556h-10.6Z" transform="translate(-7.037 -439.105)" fill="#fff" stroke="#fff" stroke-width="0.5"/>
</svg>
