<svg xmlns="http://www.w3.org/2000/svg" width="27.111" height="27.804" viewBox="0 0 27.111 27.804">
  <g id="_13_over" data-name="13_over" transform="translate(-690.49 -390.092)">
    <path id="합치기_5" data-name="합치기 5" d="M7022.3-18623.8a1.366,1.366,0,0,1-1.4-1.4v-.9h-2.447v-1.5h3.846v2.2h1.9v-7.8a.9.9,0,0,0-.9-.9h-14.9c-.4,0-.7.42-.8.795v.945H7006v-.945a2.5,2.5,0,0,1,2.4-2.395l.9-5.2a1.3,1.3,0,0,1,1.3-1.1h10.6a1.3,1.3,0,0,1,1.3,1.1l.9,5.2a2.688,2.688,0,0,1,2.5,2.5v8a1.365,1.365,0,0,1-1.4,1.4Zm-12.4-11.9h11.9l-.8-4.8h-10.3Zm8.551,9.512q0,.038,0,.088S7018.452-18626.137,7018.451-18626.186Zm0-.01v0Zm0-.047c0,.016,0,.031,0,.047C7018.451-18626.209,7018.45-18626.227,7018.45-18626.242Zm0-.014a.128.128,0,0,1,0,.014A.128.128,0,0,0,7018.45-18626.256Zm0-.006v0Zm0-.014v0Zm0-.066c0,.018,0,.039,0,.066C7018.449-18626.3,7018.449-18626.322,7018.449-18626.342Zm0-.01v0Zm0-.029c0,.008,0,.018,0,.029C7018.448-18626.363,7018.448-18626.373,7018.448-18626.381Zm0,0v0Zm0-.01v0Zm0,0Zm0,0Zm.252-4.523a2.3,2.3,0,0,1,2.3-2.3,2.3,2.3,0,0,1,2.3,2.3,2.3,2.3,0,0,1-2.3,2.3A2.3,2.3,0,0,1,7018.7-18630.916Zm1.366,0a.93.93,0,0,0,.931.93.931.931,0,0,0,.936-.93.932.932,0,0,0-.936-.936A.931.931,0,0,0,7020.066-18630.916Z" transform="translate(-6308.3 19032.092)" fill="#fff"/>
    <g id="setting" transform="translate(59.25 295.116)">
      <path id="패스_1015" data-name="패스 1015" d="M2549.97,447.034l2,3.473,2.084-.465,2.161,1.254.64,2.037,4.006.007.639-2.039,2.169-1.253,2.088.466,2-3.471-1.446-1.573,0-2.5,1.446-1.574-2.009-3.467-2.086.467-2.156-1.243-.64-2.036h-4.008l-.639,2.039-2.148,1.241-2.086-.465-2.006,3.47,1.443,1.571,0,2.488Zm1.7-5.785.846-1.7,1.719.334,2.893-1.738.528-1.739h2.412l.527,1.739,2.9,1.738,1.733-.334.848,1.7-1.189,1.3v3.333l1.189,1.308-.848,1.7-1.733-.324-2.9,1.693-.527,1.738h-2.412l-.528-1.738-2.893-1.693-1.719.324-.846-1.7,1.1-1.308v-3.333Z" transform="translate(-1918.73 -330.562)" fill="#fff"/>
      <path id="패스_1016" data-name="패스 1016" d="M2608.758,501.988a5.058,5.058,0,1,0-5.058-5.058A5.058,5.058,0,0,0,2608.758,501.988Zm0-8.646a3.489,3.489,0,0,1,3.765,3.588,3.535,3.535,0,0,1-3.765,3.648,3.461,3.461,0,0,1-3.672-3.648A3.418,3.418,0,0,1,2608.758,493.342Z" transform="translate(-1968.623 -383.264)" fill="#fff"/>
    </g>
  </g>
</svg>
